<?xml version="1.0" standalone="no"?>
<!DOCTYPE svg PUBLIC "-//W3C//DTD SVG 20010904//EN"
 "http://www.w3.org/TR/2001/REC-SVG-20010904/DTD/svg10.dtd">
<svg version="1.0" xmlns="http://www.w3.org/2000/svg"
 width="700.000000pt" height="700.000000pt" viewBox="0 0 700.000000 700.000000"
 preserveAspectRatio="xMidYMid meet">
<metadata>
Created by potrace 1.14, written by Peter Selinger 2001-2017
</metadata>
<g transform="translate(0.000000,700.000000) scale(0.100000,-0.100000)"
fill="#000000" stroke="none">
<path d="M1890 5623 c-90 -14 -189 -64 -260 -132 -64 -62 -99 -117 -131 -207
l-22 -59 -1 -1355 c-2 -1066 1 -1370 11 -1425 33 -178 163 -324 338 -377 l70
-22 1605 0 c1503 0 1609 2 1665 18 179 53 317 204 350 381 9 49 11 2713 2
2771 -17 113 -97 244 -192 316 -53 41 -131 74 -205 88 -42 8 -3176 11 -3230 3z
m3240 -209 c41 -12 67 -29 110 -72 98 -100 91 32 88 -1527 l-3 -1360 -30 -54
c-35 -63 -108 -125 -168 -143 -32 -9 -409 -12 -1637 -13 l-1595 0 -59 30 c-70
35 -119 90 -146 162 -20 54 -20 71 -18 1416 l3 1362 25 49 c32 63 110 132 169
150 39 12 287 15 1627 15 1416 1 1586 -1 1634 -15z"/>
<path d="M2306 4723 c-26 -7 -53 -33 -64 -63 -20 -56 -1 -80 206 -262 108 -95
199 -175 202 -178 3 -3 41 -36 85 -75 77 -67 99 -86 156 -137 14 -13 51 -45
83 -73 32 -27 72 -63 89 -78 l32 -28 -30 -26 c-16 -14 -43 -37 -60 -52 -16
-14 -120 -105 -230 -201 -110 -96 -202 -177 -205 -180 -3 -3 -57 -50 -120
-105 -63 -55 -134 -117 -157 -139 -66 -61 -69 -132 -8 -172 50 -33 99 -15 187
69 11 10 109 96 223 196 76 66 514 449 544 476 94 83 110 109 97 158 -9 34
-11 36 -321 307 -291 254 -364 319 -420 370 -104 94 -212 183 -232 191 -26 9
-27 10 -57 2z"/>
<path d="M3195 3020 c-75 -28 -79 -150 -7 -179 18 -7 265 -12 763 -13 793 -3
774 -4 798 49 20 43 13 82 -18 114 -16 16 -35 29 -43 30 -88 5 -1478 4 -1493
-1z"/>
<path d="M1886 1885 c-64 -23 -89 -55 -94 -123 -4 -51 -1 -62 21 -88 26 -31
70 -53 143 -73 63 -17 94 -46 94 -87 0 -74 -116 -98 -198 -40 -45 31 -58 32
-71 8 -25 -46 79 -111 172 -108 130 4 199 100 152 212 -11 27 -26 40 -67 59
-29 13 -69 27 -89 30 -65 12 -97 52 -90 112 2 18 55 43 93 43 18 0 57 -12 86
-27 45 -23 55 -25 63 -12 18 28 9 48 -35 74 -53 31 -127 39 -180 20z"/>
<path d="M3323 1878 c-10 -18 -12 -459 -1 -480 8 -16 25 -18 143 -18 118 0
135 2 144 18 18 34 -3 49 -74 50 -36 0 -84 1 -108 1 l-42 1 0 203 c1 111 -3
210 -7 220 -10 20 -43 23 -55 5z"/>
<path d="M3702 1873 c-10 -22 -8 -465 2 -481 11 -18 44 -14 54 6 11 21 10 462
-1 480 -12 18 -45 15 -55 -5z"/>
<path d="M3892 1878 c-14 -14 -17 -464 -3 -486 5 -8 17 -12 27 -10 18 3 19 16
22 192 l2 189 25 -34 c14 -19 33 -45 42 -58 10 -13 61 -83 114 -155 146 -200
150 -197 151 118 1 248 -3 273 -40 250 -15 -10 -17 -34 -20 -194 l-2 -184 -50
70 c-27 38 -53 74 -57 79 -5 6 -37 51 -72 100 -99 138 -112 150 -139 123z"/>
<path d="M4395 1880 c-4 -6 -6 -88 -7 -183 0 -189 7 -220 60 -270 73 -70 193
-68 258 5 51 56 57 81 57 266 0 177 -4 197 -39 190 -17 -3 -19 -18 -24 -183
-4 -150 -8 -184 -23 -206 -35 -51 -105 -69 -155 -39 -60 37 -65 55 -67 239 -1
92 -5 172 -9 179 -9 15 -42 16 -51 2z"/>
<path d="M4849 1880 c-1 -5 -2 -16 -3 -23 0 -7 24 -48 54 -91 30 -43 63 -90
72 -105 l18 -28 -75 -109 c-42 -60 -74 -116 -73 -124 2 -8 14 -15 27 -15 25 0
30 6 124 143 l36 53 39 -53 c21 -29 53 -75 71 -101 25 -36 38 -47 54 -45 42 6
31 42 -42 146 -39 55 -71 103 -71 107 0 4 30 50 68 103 77 111 83 123 70 140
-22 27 -45 9 -112 -88 -38 -55 -70 -100 -71 -100 -1 0 -32 45 -70 100 -54 78
-74 100 -92 100 -13 0 -24 -4 -24 -10z"/>
<path d="M2308 1757 c-135 -60 -151 -272 -27 -354 56 -37 137 -38 192 -3 88
58 114 201 52 290 -49 71 -143 99 -217 67z m144 -84 c47 -45 56 -109 24 -172
-47 -90 -165 -81 -202 15 -28 73 -2 153 59 179 43 18 85 10 119 -22z"/>
<path d="M2790 1759 c-14 -6 -35 -19 -46 -30 l-22 -20 -6 25 c-5 19 -13 26
-31 26 -14 0 -26 -3 -26 -7 -1 -5 -2 -84 -3 -177 -2 -180 3 -204 42 -192 21 7
22 13 22 126 0 66 5 130 11 143 27 59 123 66 147 12 7 -15 12 -76 12 -150 0
-117 1 -124 21 -130 36 -12 43 9 44 133 1 71 6 126 13 139 26 47 99 61 135 25
19 -20 21 -33 22 -150 1 -71 5 -134 9 -140 11 -18 43 -14 50 5 4 9 6 76 5 148
-1 153 -13 189 -67 212 -49 20 -102 9 -146 -31 -33 -31 -36 -32 -42 -14 -8 25
-62 58 -94 57 -14 0 -36 -5 -50 -10z"/>
</g>
</svg>
