<?xml version="1.0" standalone="no"?>
<!DOCTYPE svg PUBLIC "-//W3C//DTD SVG 20010904//EN"
 "http://www.w3.org/TR/2001/REC-SVG-20010904/DTD/svg10.dtd">
<svg version="1.0" xmlns="http://www.w3.org/2000/svg"
 width="700.000000pt" height="700.000000pt" viewBox="0 0 700.000000 700.000000"
 preserveAspectRatio="xMidYMid meet">
<metadata>
Created by potrace 1.14, written by Peter Selinger 2001-2017
</metadata>
<g transform="translate(0.000000,700.000000) scale(0.100000,-0.100000)"
fill="#000000" stroke="none">
<path d="M1017 6894 c-1 -1 -33 -4 -72 -7 -89 -7 -190 -38 -281 -87 -84 -45
-100 -57 -181 -136 -110 -108 -192 -264 -219 -414 -20 -114 -20 -4357 1 -4445
26 -111 32 -130 69 -204 46 -93 89 -152 163 -222 110 -105 201 -155 352 -193
l91 -23 2562 1 c2456 2 2566 2 2632 20 296 79 510 303 576 604 19 85 20 148
17 2262 -1 1196 -6 2189 -10 2205 -26 101 -92 263 -117 285 -3 3 -17 21 -30
40 -96 138 -272 254 -450 295 -70 17 -230 18 -2588 19 -1383 1 -2514 0 -2515
0z m5102 -347 c130 -54 217 -145 272 -282 l24 -60 3 -2140 c2 -1533 0 -2157
-8 -2200 -36 -192 -182 -338 -381 -381 -13 -2 -1156 -5 -2539 -5 -1805 0
-2529 3 -2564 11 -119 27 -251 127 -308 236 -62 115 -58 -34 -58 2303 0 1907
2 2142 16 2196 43 163 175 296 334 336 58 15 288 16 2605 15 l2540 -2 64 -27z"/>
<path d="M1552 5433 c-62 -30 -92 -100 -78 -178 7 -35 45 -81 121 -145 36 -30
278 -242 285 -250 3 -3 59 -52 125 -110 66 -57 125 -109 131 -115 6 -5 39 -35
74 -65 34 -30 71 -62 80 -70 34 -30 157 -138 279 -245 69 -60 131 -115 137
-120 6 -6 39 -35 73 -65 l61 -53 -34 -31 c-29 -27 -91 -82 -162 -143 -12 -10
-49 -43 -84 -73 -35 -30 -72 -63 -84 -73 -12 -10 -35 -31 -51 -45 -17 -15 -64
-56 -105 -92 -41 -36 -77 -67 -80 -70 -3 -3 -41 -37 -85 -75 -44 -37 -87 -75
-96 -84 -9 -9 -29 -27 -45 -41 -16 -13 -101 -87 -189 -164 -88 -77 -173 -152
-189 -166 -95 -82 -146 -134 -154 -158 -28 -79 12 -171 87 -202 64 -26 125
-10 186 47 17 16 140 125 275 242 135 118 276 241 315 275 38 34 87 77 110 96
22 19 42 37 45 40 3 3 41 37 85 75 86 76 94 83 235 205 52 46 113 99 135 119
22 20 74 65 115 101 41 36 87 76 102 89 56 49 76 137 44 198 -8 16 -45 56 -83
88 -37 32 -72 63 -78 69 -11 12 -386 340 -424 372 -13 10 -31 26 -40 35 -18
18 -302 268 -486 428 -66 58 -143 125 -170 150 -28 25 -79 71 -114 101 -35 30
-69 60 -75 65 -59 56 -129 70 -194 38z"/>
<path d="M3078 2730 c-82 -5 -112 -20 -152 -73 -30 -41 -28 -123 4 -171 51
-74 -39 -69 1259 -73 641 -3 1180 -2 1198 2 81 15 136 110 113 196 -13 47 -56
91 -102 105 -20 6 -455 11 -1133 13 -604 1 -1102 3 -1105 4 -3 1 -40 0 -82 -3z"/>
<path d="M965 922 c-134 -24 -204 -94 -212 -211 -9 -135 51 -200 232 -251 137
-38 177 -67 189 -136 9 -47 -28 -94 -89 -117 -84 -32 -183 -10 -260 57 -35 30
-43 31 -73 10 -33 -23 -28 -61 14 -100 122 -116 352 -119 455 -7 80 85 83 224
7 302 -42 43 -66 54 -179 87 -125 35 -167 58 -184 96 -26 64 4 128 71 152 77
26 170 8 249 -50 17 -12 37 -19 45 -16 20 7 39 33 40 54 0 19 -42 67 -80 89
-50 31 -167 52 -225 41z"/>
<path d="M3843 909 c-12 -4 -26 -16 -31 -26 -4 -10 -8 -184 -8 -386 l1 -369
23 -18 c24 -20 54 -17 74 7 9 11 12 107 12 379 1 201 -2 374 -6 384 -10 26
-39 39 -65 29z"/>
<path d="M4929 899 c-18 -18 -19 -36 -19 -280 0 -288 7 -334 60 -407 60 -84
134 -119 246 -120 117 0 208 58 262 168 l27 55 3 269 c2 148 1 279 -2 292 -9
33 -36 46 -67 31 l-24 -13 -5 -275 -5 -276 -30 -48 c-73 -118 -234 -126 -314
-15 -17 23 -33 56 -36 74 -3 17 -6 145 -7 284 -3 242 -4 254 -23 265 -31 18
-45 17 -66 -4z"/>
<path d="M5662 904 c-40 -28 -28 -57 90 -222 61 -86 113 -164 115 -172 3 -13
-36 -75 -160 -250 -52 -75 -67 -102 -67 -124 0 -29 31 -50 59 -41 10 3 67 75
126 160 59 85 110 155 114 155 3 0 42 -52 86 -115 130 -188 145 -205 174 -205
21 0 51 35 51 59 0 8 -36 65 -81 128 -44 63 -98 141 -121 173 l-40 59 29 38
c16 21 71 98 122 171 76 108 92 138 87 158 -8 31 -44 47 -68 31 -10 -7 -56
-66 -102 -132 -47 -66 -92 -129 -101 -140 -8 -10 -15 -23 -15 -27 0 -25 -29 8
-125 145 -60 83 -108 153 -109 153 -9 12 -47 10 -64 -2z"/>
<path d="M3208 893 c-13 -15 -15 -73 -14 -389 1 -335 3 -374 18 -391 16 -17
34 -18 222 -18 235 0 242 3 237 77 -2 27 -36 32 -206 33 l-160 0 0 336 c0 267
-3 340 -14 353 -18 21 -64 20 -83 -1z"/>
<path d="M4110 895 c-16 -20 -17 -759 -1 -779 20 -23 49 -25 68 -4 16 18 18
45 17 304 0 156 3 284 6 283 3 0 102 -133 220 -296 126 -174 224 -300 237
-304 15 -6 29 -2 45 11 l23 18 1 369 c0 219 -4 377 -9 391 -12 25 -57 31 -76
9 -7 -9 -12 -111 -13 -305 l-3 -292 -150 206 c-82 113 -168 232 -190 263 -80
115 -105 141 -135 141 -15 0 -33 -7 -40 -15z"/>
<path d="M1593 704 c-64 -23 -126 -84 -158 -156 -25 -54 -29 -76 -29 -148 0
-99 27 -170 87 -231 134 -137 379 -96 457 76 85 187 9 401 -163 459 -58 20
-138 19 -194 0z m187 -110 c19 -11 48 -40 65 -64 25 -38 30 -56 32 -114 2 -83
-13 -126 -64 -178 -53 -54 -131 -65 -205 -27 -62 32 -97 99 -99 190 -4 160
146 267 271 193z"/>
<path d="M2335 694 c-25 -13 -57 -36 -70 -51 l-24 -28 -1 31 c0 65 -77 86 -97
27 -14 -43 -9 -538 6 -556 34 -42 90 -14 92 46 0 17 1 99 1 181 0 82 4 161 10
176 26 76 133 118 203 80 46 -24 50 -44 53 -250 1 -107 5 -205 7 -217 3 -12
17 -25 34 -31 25 -9 32 -7 48 10 16 18 18 40 19 187 1 202 6 230 44 269 48 51
140 63 183 25 43 -39 47 -63 47 -265 0 -106 4 -198 8 -204 24 -36 85 -33 94 5
11 42 1 418 -11 456 -31 92 -94 136 -186 131 -62 -4 -109 -27 -156 -77 l-36
-39 -24 37 c-50 77 -159 103 -244 57z"/>
</g>
</svg>
