<?xml version="1.0" encoding="UTF-8"?>
<!-- Created with Inkscape (http://www.inkscape.org/) -->
<svg width="300" height="300" version="1.1" viewBox="0 0 79.375 79.375" xmlns="http://www.w3.org/2000/svg">
 <g stroke-linejoin="round">
  <g transform="matrix(1.3082 0 0 1.3082 -137.6 -72.36)" fill="none" stroke="#000" stroke-width="2">
   <path d="m119.61 65.091h31.832c2.2294 0 4.0242 1.7948 4.0242 4.0242v26.243c0 2.2294-1.7948 4.0242-4.0242 4.0242h-31.832c-2.2294 0-4.0242-1.7948-4.0242-4.0242v-26.243c0-2.2294 1.7948-4.0242 4.0242-4.0242z"/>
   <path d="m123.46 74.215 9.4094 8.1027-9.3827 8.0478" fill="none" stroke-linecap="round"/>
   <path d="m147.57 91.491-14.84-0.0492" fill="none" stroke-linecap="round"/>
  </g>
  <g transform="matrix(.27957 0 0 .28874 -104.91 -14.019)" stroke-linecap="round" stroke-width="1.1339" style="white-space:pre" aria-label="SomLINUX">
   <path d="m442.34 283.69q-2.4473 0-4.3247-0.6705-1.8774-0.70403-3.5872-2.2462-0.70402-0.60346-0.70402-1.3745 0-0.60345 0.46935-1.0728 0.46935-0.50287 1.1063-0.50287 0.56993 0 0.97223 0.36877 1.341 1.2404 2.7491 1.8439 1.4416 0.56993 3.2519 0.56993 2.1121 0 3.5537-0.97223 1.4751-0.97223 1.4751-2.4473-0.0335-1.7433-1.4751-2.682-1.4081-0.97223-4.3247-1.6092-3.4531-0.70403-5.3305-2.3132-1.8439-1.6092-1.8439-4.4588 0-1.978 1.0393-3.4531 1.0393-1.5086 2.8832-2.3132t4.1571-0.8046q2.0786 0 3.9224 0.6705t2.9837 1.7768q0.77107 0.6705 0.77107 1.4416 0 0.60345-0.46935 1.0728-0.43582 0.46935-1.0728 0.46935-0.46935 0-0.77108-0.2682-0.87165-0.87165-2.4138-1.4751-1.5422-0.60345-2.9502-0.60345-2.2462 0-3.5872 0.9387-1.3075 0.90518-1.3075 2.4138 0 1.6427 1.3075 2.5144 1.341 0.87165 3.956 1.4751 2.615 0.56993 4.2577 1.341 1.6763 0.77108 2.5814 2.1456 0.90518 1.3745 0.90518 3.5872 0 1.9445-1.1063 3.4531-1.0728 1.5086-2.9502 2.3468-1.8774 0.83813-4.1236 0.83813zm29.458-9.1188q0 2.615-1.1734 4.6935-1.1734 2.0786-3.2184 3.2519-2.0115 1.1734-4.4588 1.1734t-4.4924-1.1734q-2.0115-1.1734-3.1849-3.2519-1.1734-2.0786-1.1734-4.6935t1.1734-4.727 3.1849-3.2855q2.045-1.1734 4.4924-1.1734t4.4588 1.1734q2.045 1.1734 3.2184 3.2855 1.1734 2.1121 1.1734 4.727zm-3.1849 0q0-1.8104-0.77108-3.2184-0.73755-1.4416-2.045-2.2126-1.274-0.80461-2.8496-0.80461t-2.8832 0.80461q-1.274 0.77107-2.045 2.2126-0.73755 1.4081-0.73755 3.2184 0 1.7768 0.73755 3.1849 0.77108 1.408 2.045 2.2126 1.3075 0.77108 2.8832 0.77108t2.8496-0.77108q1.3075-0.8046 2.045-2.2126 0.77108-1.4081 0.77108-3.1849zm27.849-9.0853q5.8669 0 5.8669 7.3085v8.9512q0 0.70403-0.43583 1.1734-0.43582 0.43583-1.1398 0.43583t-1.1734-0.46935q-0.43582-0.46935-0.43582-1.1399v-8.9177q0-4.3918-3.6878-4.3918-1.3075 0-2.3803 0.60345-1.0393 0.56993-1.6427 1.5757-0.56992 1.0058-0.56992 2.2127v8.9177q0 0.67051-0.46936 1.1399-0.43582 0.46935-1.1398 0.46935t-1.1398-0.43583q-0.43583-0.46935-0.43583-1.1734v-8.9512q0-1.978-0.83813-3.1514-0.83812-1.2069-2.7826-1.2069-1.978 0-3.2855 1.274-1.274 1.2404-1.274 3.0843v8.9512q0 0.67051-0.46935 1.1399-0.43583 0.46935-1.1399 0.46935-0.70402 0-1.1398-0.43583-0.43583-0.46935-0.43583-1.1734v-14.349q0-0.6705 0.43583-1.1398 0.46935-0.46935 1.1398-0.46935 0.70403 0 1.1399 0.46935 0.46935 0.46935 0.46935 1.1398v1.1734q0.87165-1.3075 2.3132-2.1791 1.4751-0.90518 3.1849-0.90518 4.1571 0 5.3975 3.6878 0.73756-1.408 2.4473-2.5479 1.7098-1.1398 3.6207-1.1398z"/>
   <path d="m521.26 280.24q0.70403 0 1.1399 0.43583 0.46935 0.43583 0.46935 1.1398 0 0.67051-0.46935 1.1063-0.43583 0.43583-1.1399 0.43583h-11.331q-0.70403 0-1.1734-0.46935-0.43583-0.46935-0.43583-1.1399v-20.249q0-0.6705 0.46936-1.1398 0.46935-0.46935 1.2069-0.46935 0.6705 0 1.1398 0.46935 0.50288 0.46935 0.50288 1.1398v18.741zm8.8171 1.4751q0 0.70403-0.50288 1.1734-0.50287 0.46935-1.1734 0.46935-0.73756 0-1.2069-0.46935-0.43582-0.46935-0.43582-1.1734v-20.216q0-0.6705 0.46935-1.1398t1.2069-0.46935q0.6705 0 1.1398 0.46935 0.50288 0.46935 0.50288 1.1398zm23.099-21.825q0.63698 0 1.0393 0.43582 0.4023 0.40231 0.4023 1.0393v20.35q0 0.70403-0.46935 1.1734-0.43583 0.46935-1.1399 0.46935-0.36877 0-0.73755-0.10058-0.33525-0.1341-0.5364-0.36877l-13.175-17.165v16.159q0 0.63698-0.43582 1.0728-0.4023 0.4023-1.0393 0.4023t-1.0393-0.4023q-0.4023-0.43583-0.4023-1.0728v-20.383q0-0.70402 0.43583-1.1398 0.46935-0.46935 1.1398-0.46935 0.4023 0 0.77108 0.16762 0.36877 0.1341 0.56992 0.40231l13.142 17.198v-16.293q0-0.63697 0.40231-1.0393 0.43582-0.43582 1.0728-0.43582zm23.635-0.0335q0.70403 0 1.1063 0.46935 0.43583 0.43583 0.43583 1.1399v12.874q0 2.6485-1.1734 4.7606t-3.2519 3.319q-2.045 1.1734-4.6265 1.1734-2.615 0-4.6935-1.1734-2.0786-1.2069-3.2519-3.319t-1.1734-4.7606v-12.874q0-0.70403 0.46935-1.1399 0.46936-0.46935 1.2069-0.46935 0.63697 0 1.1063 0.46935 0.50287 0.46936 0.50287 1.1399v12.874q0 1.7433 0.8046 3.1514 0.80461 1.3745 2.1456 2.1456 1.341 0.77108 2.8832 0.77108 1.6092 0 2.9837-0.77108 1.3745-0.77107 2.1791-2.1456 0.83812-1.4081 0.83812-3.1514v-12.874q0-0.70403 0.4023-1.1399 0.40231-0.46935 1.1063-0.46935zm23.568 21.087q0.30173 0.4023 0.30173 0.97223 0 0.70403-0.50288 1.1398-0.46935 0.43583-1.0728 0.43583-0.83813 0-1.3075-0.6705l-6.5039-8.7165-6.3698 8.683q-0.50288 0.70403-1.3075 0.70403-0.60345 0-1.0393-0.4023-0.4023-0.43583-0.4023-0.97223 0-0.56993 0.4023-1.1063l6.8726-9.3535-6.9062-9.2864q-0.33526-0.43583-0.33526-0.97223 0-0.6705 0.46936-1.1399 0.50287-0.46935 1.1398-0.46935 0.36878 0 0.70403 0.16763 0.36877 0.16762 0.60345 0.50288l6.4368 8.6495 6.3698-8.5489q0.56992-0.73755 1.274-0.73755 0.60345 0 1.0393 0.46935 0.46935 0.43583 0.46935 1.0058 0 0.50288-0.33525 0.97223l-6.9732 9.32z"/>
  </g>
 </g>
</svg>
